<svg xmlns="http://www.w3.org/2000/svg" viewBox="0 0 17.067 12.133"><defs><style>.a{fill:#bdc1ce;}</style></defs><g transform="translate(0 0)"><path class="a" d="M15.691,16.615H1.376A1.377,1.377,0,0,1,0,15.239V5.858A1.377,1.377,0,0,1,1.376,4.482H15.691a1.377,1.377,0,0,1,1.376,1.376v9.381A1.377,1.377,0,0,1,15.691,16.615ZM1.376,5.032a.826.826,0,0,0-.825.825v9.381a.826.826,0,0,0,.825.825H15.691a.826.826,0,0,0,.825-.825V5.858a.826.826,0,0,0-.825-.825Z" transform="translate(0 -4.482)"/><path class="a" d="M8.857,12.322a1.538,1.538,0,0,1-1.01-.365L.814,5.825a.275.275,0,0,1,.362-.415l7.032,6.133a1.031,1.031,0,0,0,1.3,0l7.03-6.132a.275.275,0,0,1,.362.415L9.867,11.957A1.536,1.536,0,0,1,8.857,12.322Z" transform="translate(-0.323 -4.868)"/></g></svg>