<svg xmlns="http://www.w3.org/2000/svg" xmlns:xlink="http://www.w3.org/1999/xlink" viewBox="0 0 630 152"><defs><style>.a,.b,.f,.h{fill:none;}.b,.c{stroke:#78a2ff;}.b,.h{stroke-linecap:round;stroke-width:5px;}.c,.i{fill:#eaecf2;stroke-width:3px;}.d{clip-path:url(#a);}.e{fill:#bdc1ce;font-size:12px;font-family:Roboto-Medium, Roboto;font-weight:500;}.f{stroke:#eaecf2;}.g{clip-path:url(#b);}.h,.i{stroke:#a67fff;}.j{stroke:none;}</style><clipPath id="a"><rect class="a" width="629.5" height="130"/></clipPath><clipPath id="b"><rect class="a" width="598" height="14"/></clipPath></defs><g transform="translate(-265 -556)"><path class="b" d="M168.837,600.4a204.679,204.679,0,0,1,48.126-26.036c27.614-10.256,56.8-4.734,56.8-4.734a253.015,253.015,0,0,0,44.971,8.679c23.669,2.17,49.7,0,49.7,0s26.627-6.114,50.493-14.2a465.151,465.151,0,0,0,44.971-18.146,112.971,112.971,0,0,1,41.815-7.89c24.063,0,54.438,7.89,54.438,7.89s34.391,5.845,57.468,5.845,35.989-4.643,35.989-4.643l34.709-13.51s-9.139,4.4.776-.3,21.22-12.961,38.886-18.487,31.777-3.617,31.777-3.617" transform="translate(130 53)"/><g class="c" transform="translate(294 649)"><circle class="j" cx="5" cy="5" r="5"/><circle class="a" cx="5" cy="5" r="3.5"/></g><g class="c" transform="translate(399 617)"><circle class="j" cx="5" cy="5" r="5"/><circle class="a" cx="5" cy="5" r="3.5"/></g><g class="c" transform="translate(493 625)"><circle class="j" cx="5" cy="5" r="5"/><circle class="a" cx="5" cy="5" r="3.5"/></g><g class="c" transform="translate(590 594)"><circle class="j" cx="5" cy="5" r="5"/><circle class="a" cx="5" cy="5" r="3.5"/></g><g class="c" transform="translate(685 593)"><circle class="j" cx="5" cy="5" r="5"/><circle class="a" cx="5" cy="5" r="3.5"/></g><g class="c" transform="translate(780 594)"><circle class="j" cx="5" cy="5" r="5"/><circle class="a" cx="5" cy="5" r="3.5"/></g><g class="c" transform="translate(885 559)"><circle class="j" cx="5" cy="5" r="5"/><circle class="a" cx="5" cy="5" r="3.5"/></g><g class="d" transform="translate(265 556)"><g transform="translate(-265 -556)"><text class="e" transform="translate(265 567)"><tspan x="0" y="0">0.9</tspan></text><line class="f" x2="600" transform="translate(294.5 563.5)"/></g><g transform="translate(-265 -518)"><text class="e" transform="translate(265 567)"><tspan x="0" y="0">0.6</tspan></text><line class="f" x2="600" transform="translate(294.5 563.5)"/></g><g transform="translate(-265 -480)"><text class="e" transform="translate(265 567)"><tspan x="0" y="0">0.3</tspan></text><line class="f" x2="600" transform="translate(294.5 563.5)"/></g><g transform="translate(-265 -442)"><text class="e" transform="translate(265 567)"><tspan x="0" y="0">0</tspan></text><line class="f" x2="600" transform="translate(294.5 563.5)"/></g></g><g class="g" transform="translate(297 694)"><g transform="translate(-297 -694)"><text class="e" transform="translate(297 705)"><tspan x="0" y="0">08-24</tspan></text></g><g transform="translate(-203 -694)"><text class="e" transform="translate(297 705)"><tspan x="0" y="0">08-25</tspan></text></g><g transform="translate(-109 -694)"><text class="e" transform="translate(297 705)"><tspan x="0" y="0">08-26</tspan></text></g><g transform="translate(-15 -694)"><text class="e" transform="translate(297 705)"><tspan x="0" y="0">08-27</tspan></text></g><g transform="translate(79 -694)"><text class="e" transform="translate(297 705)"><tspan x="0" y="0">08-28</tspan></text></g><g transform="translate(173 -694)"><text class="e" transform="translate(297 705)"><tspan x="0" y="0">08-27</tspan></text></g><g transform="translate(267 -694)"><text class="e" transform="translate(297 705)"><tspan x="0" y="0">08-30</tspan></text></g></g><path class="h" d="M171.8,604.089s20.494-15.406,45.47-20.541,54.433,0,54.433,0,26.995,8.4,51.166,11.2a208.165,208.165,0,0,0,45.517,0s29.586-5.287,53.406-11.2,41.875-12.465,41.875-12.465a196.087,196.087,0,0,1,44.3-6.676c24.276-.759,52.8,3.641,52.8,3.641a346.176,346.176,0,0,0,47.337,7.89,316.968,316.968,0,0,0,46.731,0,116.81,116.81,0,0,0,29.677-6.617c16.742-5.936,17.784-11.664,37.292-17.127a183.739,183.739,0,0,1,39.237-5.994" transform="translate(130 53)"/><g class="i" transform="translate(885 594)"><circle class="j" cx="5" cy="5" r="5"/><circle class="a" cx="5" cy="5" r="3.5"/></g><g class="i" transform="translate(779 623)"><circle class="j" cx="5" cy="5" r="5"/><circle class="a" cx="5" cy="5" r="3.5"/></g><g class="i" transform="translate(685 616)"><circle class="j" cx="5" cy="5" r="5"/><circle class="a" cx="5" cy="5" r="3.5"/></g><g class="i" transform="translate(589 619)"><circle class="j" cx="5" cy="5" r="5"/><circle class="a" cx="5" cy="5" r="3.5"/></g><g class="i" transform="translate(492 642)"><circle class="j" cx="5" cy="5" r="5"/><circle class="a" cx="5" cy="5" r="3.5"/></g><g class="i" transform="translate(397 632)"><circle class="j" cx="5" cy="5" r="5"/><circle class="a" cx="5" cy="5" r="3.5"/></g><g class="i" transform="translate(297 651)"><circle class="j" cx="5" cy="5" r="5"/><circle class="a" cx="5" cy="5" r="3.5"/></g></g></svg>