<svg xmlns="http://www.w3.org/2000/svg" viewBox="0 0 24.516 19.972"><defs><style>.a{fill:#EAECF2;}</style></defs><g transform="translate(0 0)"><path class="a" d="M22.1,17.542l-.2,1.846a.528.528,0,0,0,.526.584h5.587a.528.528,0,0,0,.526-.584l-.2-1.846H35.3a1.966,1.966,0,0,0,1.964-1.964V1.964A1.967,1.967,0,0,0,35.3,0H14.713a1.966,1.966,0,0,0-1.964,1.964V15.578a1.966,1.966,0,0,0,1.964,1.964H22.1Zm5.33,1.374H23.012l.145-1.374h4.121ZM14.713,1.057H35.3a.908.908,0,0,1,.908.907V13.949h-22.4V1.964A.908.908,0,0,1,14.713,1.057Zm-.907,14.521v-.572h22.4v.572a.908.908,0,0,1-.908.907H14.713A.908.908,0,0,1,13.806,15.578Z" transform="translate(-12.749)"/></g></svg>