<svg xmlns="http://www.w3.org/2000/svg" viewBox="0 0 19.655 20"><defs><style>.a{fill:#EAECF2;}</style></defs><g transform="translate(0 0)"><path class="a" d="M23.377,5.895a1.667,1.667,0,0,0-1.248-.562H19.968v-1A4.338,4.338,0,0,0,15.635,0H12.3A4.338,4.338,0,0,0,7.968,4.333v1H5.808A1.667,1.667,0,0,0,4.153,7.2l1.2,10.162A3,3,0,0,0,8.329,20H19.607a3,3,0,0,0,2.978-2.638l1.2-10.16A1.668,1.668,0,0,0,23.377,5.895ZM8.635,4.333A3.671,3.671,0,0,1,12.3.667h3.333A3.671,3.671,0,0,1,19.3,4.333v1H8.635ZM19.968,8.667v.667H19.3V8.667Zm-11.333,0v.667H7.968V8.667ZM23.122,7.122l-1.2,10.16a2.336,2.336,0,0,1-2.316,2.051H8.329a2.335,2.335,0,0,1-2.316-2.05L4.815,7.121A1,1,0,0,1,5.808,6H7.968V8H7.635a.333.333,0,0,0-.333.333V9.667A.333.333,0,0,0,7.635,10H8.968A.333.333,0,0,0,9.3,9.667V8.333A.333.333,0,0,0,8.968,8H8.635V6H19.3V8h-.333a.333.333,0,0,0-.333.333V9.667a.333.333,0,0,0,.333.333H20.3a.333.333,0,0,0,.333-.333V8.333A.333.333,0,0,0,20.3,8h-.333V6h2.161a1,1,0,0,1,1,1A.986.986,0,0,1,23.122,7.122Z" transform="translate(-4.141)"/></g></svg>