<svg xmlns="http://www.w3.org/2000/svg" viewBox="0 0 17.417 20"><defs><style>.a{fill:#EAECF2;}</style></defs><path class="a" d="M50.4,5.52l-.015-.026a.943.943,0,0,0-.071-.122L47.532.562A1.128,1.128,0,0,0,46.559,0H36.983a1.128,1.128,0,0,0-.975.563L33.18,5.469a.587.587,0,0,0-.057.137.991.991,0,0,0-.062.345V18.622A1.38,1.38,0,0,0,34.44,20H49.1a1.38,1.38,0,0,0,1.378-1.378V5.9c0-.017,0-.034,0-.051A.583.583,0,0,0,50.4,5.52ZM42.377,1.172h4.155L48.72,4.956H42.377Zm-5.367,0H41.2V4.956H34.829Zm12.3,17.449a.206.206,0,0,1-.206.206H34.44a.206.206,0,0,1-.206-.206V6.129H49.307Z" transform="translate(-33.062)"/><g transform="translate(5.909 10.369)"><g transform="translate(0)"><path class="a" d="M189.979,265.8a.588.588,0,0,0-.831,0l-2.624,2.624-1.009-1.009a.588.588,0,0,0-.831.831l1.425,1.424a.588.588,0,0,0,.831,0l3.04-3.039A.588.588,0,0,0,189.979,265.8Z" transform="translate(-184.512 -265.632)"/></g></g></svg>