<svg xmlns="http://www.w3.org/2000/svg" viewBox="0 0 20 20"><defs><style>.a{fill:#bdc1ce;}</style></defs><g transform="translate(0 0)"><path class="a" d="M19.109,8.069c-.376-.056-.762-.11-1.148-.161a.113.113,0,0,1-.1-.081A8.117,8.117,0,0,0,17.1,5.976a.114.114,0,0,1,.011-.126c.237-.308.472-.619.7-.925a1.054,1.054,0,0,0-.1-1.364L16.439,2.3a1.054,1.054,0,0,0-1.364-.1c-.305.226-.617.461-.925.7a.114.114,0,0,1-.126.011,8.118,8.118,0,0,0-1.851-.767.113.113,0,0,1-.081-.1c-.05-.386-.1-.772-.161-1.148A1.054,1.054,0,0,0,10.894,0H9.106A1.054,1.054,0,0,0,8.069.892c-.056.376-.11.762-.161,1.148a.113.113,0,0,1-.081.1A8.12,8.12,0,0,0,5.976,2.9a.114.114,0,0,1-.126-.011c-.309-.237-.62-.472-.925-.7a1.054,1.054,0,0,0-1.364.1L2.3,3.561a1.054,1.054,0,0,0-.1,1.364c.227.306.462.618.7.925a.114.114,0,0,1,.011.126,8.118,8.118,0,0,0-.767,1.851.114.114,0,0,1-.1.081c-.385.05-.771.1-1.148.161A1.054,1.054,0,0,0,0,9.106v1.788a1.054,1.054,0,0,0,.892,1.037c.376.056.762.11,1.148.161a.113.113,0,0,1,.1.081A8.119,8.119,0,0,0,2.9,14.024a.114.114,0,0,1-.011.126c-.237.308-.472.62-.7.925a1.054,1.054,0,0,0,.1,1.364L3.561,17.7a1.054,1.054,0,0,0,1.364.1c.305-.226.617-.461.925-.7a.114.114,0,0,1,.126-.011,8.119,8.119,0,0,0,1.851.767.113.113,0,0,1,.081.1c.05.386.1.772.161,1.148A1.054,1.054,0,0,0,9.106,20h1.788a1.054,1.054,0,0,0,1.037-.892c.056-.376.11-.762.161-1.148a.114.114,0,0,1,.081-.1,8.121,8.121,0,0,0,1.851-.767.114.114,0,0,1,.126.011c.309.237.62.472.925.7a1.054,1.054,0,0,0,1.364-.1L17.7,16.439a1.054,1.054,0,0,0,.1-1.364c-.226-.306-.461-.617-.7-.925a.114.114,0,0,1-.011-.126,8.119,8.119,0,0,0,.767-1.851.114.114,0,0,1,.1-.081c.385-.05.771-.1,1.148-.161A1.054,1.054,0,0,0,20,10.894V9.106A1.054,1.054,0,0,0,19.109,8.069Zm-.042,2.825a.115.115,0,0,1-.1.114c-.37.055-.751.109-1.13.158a1.045,1.045,0,0,0-.876.759,7.186,7.186,0,0,1-.679,1.638,1.046,1.046,0,0,0,.083,1.157c.233.3.465.61.688.911a.115.115,0,0,1-.013.148l-1.264,1.264a.115.115,0,0,1-.148.013c-.3-.222-.607-.454-.911-.688a1.046,1.046,0,0,0-1.157-.083,7.187,7.187,0,0,1-1.638.679,1.046,1.046,0,0,0-.759.876c-.049.38-.1.76-.158,1.13a.115.115,0,0,1-.114.1H9.106a.115.115,0,0,1-.114-.1c-.055-.37-.109-.75-.158-1.13a1.045,1.045,0,0,0-.759-.876,7.184,7.184,0,0,1-1.638-.679,1.045,1.045,0,0,0-1.157.083c-.3.234-.611.465-.911.688a.115.115,0,0,1-.148-.013L2.957,15.779a.115.115,0,0,1-.013-.148c.223-.3.454-.608.688-.911a1.046,1.046,0,0,0,.083-1.157,7.185,7.185,0,0,1-.679-1.638,1.045,1.045,0,0,0-.876-.759c-.379-.049-.76-.1-1.13-.158a.115.115,0,0,1-.1-.114V9.106a.115.115,0,0,1,.1-.114c.371-.055.751-.109,1.13-.158a1.045,1.045,0,0,0,.876-.759,7.182,7.182,0,0,1,.679-1.638,1.046,1.046,0,0,0-.083-1.157c-.233-.3-.464-.61-.688-.911a.115.115,0,0,1,.013-.148L4.221,2.957a.115.115,0,0,1,.148-.013c.3.222.607.454.911.688a1.046,1.046,0,0,0,1.157.083,7.185,7.185,0,0,1,1.638-.679,1.045,1.045,0,0,0,.759-.876c.05-.38.1-.76.158-1.13a.115.115,0,0,1,.114-.1h1.788a.115.115,0,0,1,.114.1c.055.37.109.75.158,1.13a1.045,1.045,0,0,0,.759.876,7.187,7.187,0,0,1,1.638.679,1.046,1.046,0,0,0,1.157-.083c.3-.234.611-.465.911-.688a.115.115,0,0,1,.148.013l1.264,1.264a.115.115,0,0,1,.013.148c-.223.3-.454.608-.688.911a1.046,1.046,0,0,0-.083,1.157,7.185,7.185,0,0,1,.679,1.638,1.045,1.045,0,0,0,.876.759c.38.05.76.1,1.13.158a.115.115,0,0,1,.1.114v1.788Z"/><g transform="translate(5.635 5.635)"><path class="a" d="M149.231,144.866a4.365,4.365,0,1,0,4.365,4.365A4.37,4.37,0,0,0,149.231,144.866Zm0,7.791a3.426,3.426,0,1,1,3.426-3.426A3.43,3.43,0,0,1,149.231,152.657Z" transform="translate(-144.866 -144.866)"/></g></g></svg>