<svg xmlns="http://www.w3.org/2000/svg" viewBox="0 0 21.435 20"><defs><style>.a{fill:#bdc1ce;}</style></defs><g transform="translate(0 0)"><path class="a" d="M10.92,5.389l-2.113-2.6a2.168,2.168,0,0,0-1.676-.809H2.174A2.184,2.184,0,0,0,0,4.149v13.7A2.165,2.165,0,0,0,2.174,20H19.259a2.165,2.165,0,0,0,2.175-2.15V7.534a2.161,2.161,0,0,0-2.175-2.145H17.3V4.332H18.8A.325.325,0,0,0,19.127,4V2.709a1.137,1.137,0,0,0,.567-.328,1.274,1.274,0,1,0-1.8,0,1.374,1.374,0,0,0,.562.328v.95H16.981A.358.358,0,0,0,16.628,4V5.389h-1.25V2.5a1.129,1.129,0,0,0,.571-.327,1.272,1.272,0,1,0-1.8,0,1.326,1.326,0,0,0,.558.327V5.389H13.36V4a.344.344,0,0,0-.336-.344H11.63v-.95a1.163,1.163,0,0,0,.575-.328,1.276,1.276,0,0,0,.005-1.8h0a1.273,1.273,0,0,0-2.173.9,1.256,1.256,0,0,0,.363.9,1.347,1.347,0,0,0,.554.328V4a.349.349,0,0,0,.358.328h1.372V5.389Zm7.45-4.335a.6.6,0,1,1-.177.425.6.6,0,0,1,.177-.425ZM14.63.843a.6.6,0,1,1,0,.848.6.6,0,0,1,0-.848Zm-3.917.636a.6.6,0,1,1,.176.426.6.6,0,0,1-.176-.426ZM.672,17.849V4.149a1.511,1.511,0,0,1,1.5-1.5H7.132a1.5,1.5,0,0,1,1.154.562l1.766,2.178H4.634A2.168,2.168,0,0,0,2.45,7.534V19.327H2.175a1.492,1.492,0,0,1-1.5-1.477ZM20.761,7.534V17.849a1.492,1.492,0,0,1-1.5,1.477H3.123V7.534A1.5,1.5,0,0,1,4.634,6.062H19.259a1.487,1.487,0,0,1,1.5,1.472Zm0,0" transform="translate(0.001 0)"/><path class="a" d="M173.337,192.489a.338.338,0,0,0,.338-.338v-.083a.314.314,0,0,1,.329-.323h.2v.723h-.041a1.039,1.039,0,0,0-1.02,1.04v.251a.338.338,0,1,0,.675,0v-.251a.364.364,0,0,1,.345-.365h.041v.227a2.261,2.261,0,0,0,.108.621,1,1,0,0,0-.686.97v.256a.338.338,0,1,0,.675,0v-.256a.345.345,0,0,1,.31-.354,2.223,2.223,0,0,0,1.866,1h.539a2.222,2.222,0,0,0,1.893-1.013h.014a.35.35,0,0,1,.346.348v.279a.338.338,0,1,0,.675,0v-.279a1.022,1.022,0,0,0-.751-.981,2.253,2.253,0,0,0,.075-.587v-.178h.089a.342.342,0,0,1,.345.34v.229a.338.338,0,0,0,.675,0v-.229a1.018,1.018,0,0,0-1.02-1.015h-.089v-.772h.25a.314.314,0,0,1,.329.323v.083a.338.338,0,1,0,.675,0v-.083a.99.99,0,0,0-1-1h-.25v-.1a.791.791,0,0,0-.45-.714,2.069,2.069,0,0,0-.312-.86l.584-.66a.338.338,0,1,0-.505-.447l-.533.6a2.08,2.08,0,0,0-2.557-.035l-.542-.612a.338.338,0,1,0-.506.447l.58.656a2.087,2.087,0,0,0-.353.9.8.8,0,0,0-.47.719v.1H174a.99.99,0,0,0-1,1v.083A.338.338,0,0,0,173.337,192.489Zm1.543.882v-2.4a.125.125,0,0,1,.1-.114s.014-.011.018-.011.035.034.05-.015h1.374v4.12A1.592,1.592,0,0,1,174.88,193.371Zm2.218,1.579v-4.12h1.355c.015.048.03.015.045.015s0,.005,0,.005a.122.122,0,0,1,.089.119v1.8c0,.027-.011.056-.011.086s.011.058.011.086v.434a1.579,1.579,0,0,1-1.495,1.579Zm.681-5.4a.346.346,0,0,0,.066.079s.005-.008.008-.006a1.41,1.41,0,0,1,.267.527h-2.737a1.554,1.554,0,0,1,.308-.576s0,0,0,0a.339.339,0,0,0,.049-.051,1.407,1.407,0,0,1,2.037.023Zm0,0" transform="translate(-164.7 -179.105)"/></g></svg>