<svg xmlns="http://www.w3.org/2000/svg" viewBox="0 0 27.5 20"><defs><style>.a{fill:#bdc1ce;}</style></defs><g transform="translate(0 0)"><g transform="translate(0 0)"><path class="a" d="M27.5,81.5v-15A2.5,2.5,0,0,0,25,64H2.5A2.5,2.5,0,0,0,0,66.5v15A2.5,2.5,0,0,0,2.5,84H25A2.5,2.5,0,0,0,27.5,81.5Zm-26.25,0v-15A1.251,1.251,0,0,1,2.5,65.25H25a1.251,1.251,0,0,1,1.25,1.25v15A1.251,1.251,0,0,1,25,82.75H2.5A1.251,1.251,0,0,1,1.25,81.5Z" transform="translate(0 -64)"/><path class="a" d="M264.323,298.667H256.64a.64.64,0,0,0,0,1.281h7.683a.64.64,0,0,0,0-1.281Z" transform="translate(-241.305 -284.939)"/><path class="a" d="M264.323,234.667H256.64a.64.64,0,0,0,0,1.281h7.683a.64.64,0,0,0,0-1.281Z" transform="translate(-241.305 -224.683)"/><path class="a" d="M264.323,170.667H256.64a.64.64,0,0,0,0,1.281h7.683a.64.64,0,0,0,0-1.281Z" transform="translate(-241.305 -164.427)"/><path class="a" d="M109.227,154.455a2.561,2.561,0,1,0-2.561-2.561A2.564,2.564,0,0,0,109.227,154.455Zm0-3.841a1.28,1.28,0,1,1-1.28,1.28A1.282,1.282,0,0,1,109.227,150.614Z" transform="translate(-100.45 -144.374)"/><path class="a" d="M72.947,246.277a8.226,8.226,0,0,0-7.65,0,2.227,2.227,0,0,0-1.3,2.005v.293a1.262,1.262,0,0,0,1.28,1.241h7.683a1.262,1.262,0,0,0,1.28-1.241v-.293A2.227,2.227,0,0,0,72.947,246.277Zm.016,2.258-7.683.04v-.293a.957.957,0,0,1,.571-.851,6.951,6.951,0,0,1,6.54,0,.957.957,0,0,1,.571.851Z" transform="translate(-60.159 -234.781)"/></g></g></svg>